<svg id="Layer_1" data-name="Layer 1" xmlns="http://www.w3.org/2000/svg" viewBox="0 0 227.597 60.6953">
  <g>
    <g>
      <polygon points="42.63 56.336 42.63 56.336 41.41 57.329 40.838 57.794 46.206 60.695 42.63 56.336"/>
      <polygon points="40.134 57.198 39.283 56.152 38.712 56.645 40.112 57.351 40.198 57.276 40.134 57.198"/>
      <polygon points="45.827 24.054 46.402 24.755 45.701 25.33 45.527 25.472 49.531 27.636 54.568 30.358 55.105 29.918 49.028 22.51 45.99 18.806 37.964 14.469 37.964 14.469 45.827 24.054"/>
      <polygon points="45.497 25.497 45.536 25.518 45.51 25.486 45.497 25.497"/>
      <polygon points="52.117 33.541 51.829 33.19 51.542 32.84 48.399 29.008 47.055 27.37 44.739 26.118 44.418 26.382 50.45 33.735 50.738 34.086 51.025 34.436 60.191 45.61 60.766 46.311 60.065 46.886 55.941 50.268 55.941 50.268 56.246 50.64 58.147 52.958 58.147 52.958 64.064 48.106 64.064 48.106 52.117 33.541"/>
      <polygon points="50.324 35.011 50.037 34.661 49.749 34.31 43.717 26.957 43.191 27.388 42.841 27.675 42.49 27.963 40.848 29.31 45.455 34.927 48.379 38.492 44.609 36.454 44.323 36.3 43.556 35.885 42.503 35.316 27.86 27.402 31.615 31.979 37.117 34.978 37.273 35.063 37.386 35.201 49.253 49.773 49.826 50.476 49.123 51.048 46.697 53.023 46.697 53.023 48.299 54.977 48.489 55.208 48.489 55.208 54.409 50.353 54.665 50.142 55.015 49.855 55.366 49.567 59.49 46.185 50.324 35.011"/>
      <polygon points="5.625 23.714 14.078 28.282 3.671 15.596 3.096 14.895 3.798 14.32 5.619 12.826 5.336 12.48 0 16.857 5.625 23.714 5.625 23.714"/>
      <polygon points="63.911 42.103 63.754 42.018 63.641 41.881 59.07 36.308 58.495 35.607 58.666 35.467 59.196 35.032 60.036 34.343 55.919 32.119 54.866 31.55 54.672 31.445 54.242 31.212 53.811 30.979 49.1 28.433 49.161 28.508 52.243 32.265 52.53 32.616 52.818 32.966 64.765 47.531 66.334 46.244 66.684 45.957 67.035 45.669 68.415 44.537 64.268 42.296 63.911 42.103"/>
      <polygon points="42.055 55.635 42.406 55.348 42.758 55.062 43.653 54.333 45.419 52.895 45.771 52.609 46.122 52.323 48.55 50.345 36.683 35.774 33.146 33.847 38.18 39.984 41.104 43.548 37.189 41.432 37.048 41.356 36.136 40.863 35.083 40.294 30.574 37.857 42.412 52.288 42.987 52.989 42.286 53.564 41.834 53.935 41.483 54.223 41.133 54.51 39.197 56.228 40.112 57.351 42.055 55.635 42.055 55.635"/>
      <polygon points="32.287 18.873 32.301 18.891 33.046 19.799 33.06 19.816 33.819 20.742 40.273 28.609 41.915 27.262 42.266 26.974 42.616 26.687 43.142 26.256 43.493 25.968 43.843 25.681 43.878 25.653 44.256 25.342 44.635 25.031 45.126 24.629 35.858 13.33 35.741 13.188 35.099 12.405 34.868 12.124 25.221 6.91 20.285 4.243 31.527 17.947 32.287 18.873"/>
      <path d="M15.6373,28.7542,37.4794,40.5585C36.2971,39.1159,30.54,32.1,29.494,30.8237l-3.7408-4.56-1.8089-.9776c-1.1832-.64-3.0429-1.6437-4.2391-2.291a.6329.6329,0,0,1-.27-.2226L9.5764,10.7535,4.3725,15.0214Z"/>
      <polygon points="62.72 33.314 61.655 34.188 61.276 34.498 60.897 34.809 59.771 35.733 64.342 41.306 69.172 43.916 69.172 43.916 69.603 44.149 70.034 44.382 73.205 46.096 62.72 33.314"/>
      <polygon points="15.752 40.666 10.855 38.02 10.855 38.02 28.123 59.07 30.396 57.206 17.687 41.712 15.752 40.666"/>
      <polygon points="9.99 9.828 10.277 10.179 20.136 22.197 20.319 22.296 21.373 22.865 22.426 23.435 24.235 24.412 25.288 24.982 26.341 25.551 40.984 33.464 42.037 34.034 43.091 34.603 44.754 35.502 40.147 29.885 39.859 29.534 39.572 29.184 31.713 19.603 30.954 18.678 30.939 18.66 30.194 17.752 30.18 17.735 29.421 16.809 18.179 3.104 17.419 2.178 16.66 1.253 15.632 0 15.12 0.42 14.741 0.731 14.217 1.161 13.866 1.448 8.369 5.957 7.99 6.267 7.851 6.382 7.501 6.669 7.44 6.719 9.702 9.478 9.99 9.828"/>
      <path d="M39,55.0871l2.7115-2.2237L28.5576,36.824l-24.1-12.6689L33.5184,59.5825Z"/>
    </g>
    <g>
      <g>
        <path d="M84.9569,46.6159v2.1458h3.9406v.7092h-4.79V43.2h4.6313v.7092H84.9569v1.9971h3.6417v.71Z"/>
        <path d="M93.669,46.2566l2.3719,3.2143H94.9765l-1.8118-2.6186-1.84,2.6186H90.2889l2.3719-3.2143L90.4381,43.2h1.0368l1.7088,2.4613L94.9112,43.2h1.0177Z"/>
        <path d="M98.562,46.8171v2.6538h-.85V43.2h2.7642a2.1294,2.1294,0,0,1,1.5873.5429,1.7655,1.7655,0,0,1,.4667,1.2964,1.6555,1.6555,0,0,1-.57,1.3226,1.9052,1.9052,0,0,1-1.2975.4552Zm0-.7092h1.7837a1.44,1.44,0,0,0,.9524-.2893,1.0033,1.0033,0,0,0,.3451-.8146.993.993,0,0,0-.3451-.8055,1.4425,1.4425,0,0,0-.9524-.2893H98.562Z"/>
        <path d="M107.2555,43.1037a3.11,3.11,0,0,1,2.4463,1.0071,3.233,3.233,0,0,1,.775,2.2249,3.1392,3.1392,0,0,1-.9991,2.4522,3.2236,3.2236,0,0,1-2.2222.7793A3.1181,3.1181,0,0,1,104.8,48.56a3.2326,3.2326,0,0,1-.7751-2.2244,3.1252,3.1252,0,0,1,1.0082-2.4527A3.2026,3.2026,0,0,1,107.2555,43.1037Zm-.01.7092a2.2431,2.2431,0,0,0-1.8023.78,2.63,2.63,0,0,0-.57,1.743,2.5189,2.5189,0,0,0,.7378,1.9179,2.2946,2.2946,0,0,0,1.6341.6044,2.2518,2.2518,0,0,0,1.8113-.78,2.6277,2.6277,0,0,0,.57-1.7425,2.5205,2.5205,0,0,0-.7374-1.9184A2.3074,2.3074,0,0,0,107.246,43.8129Z"/>
        <path d="M114.51,43.6556a3.3814,3.3814,0,0,1,1.7742-.5343,1.6948,1.6948,0,0,1,1.3165.4814,1.6015,1.6015,0,0,1,.3828,1.121,2.1544,2.1544,0,0,1-.2989,1.0777,9.0708,9.0708,0,0,1-.9524,1.2082l-1.3165,1.4018-.3828.4375h3.0626v.2455l-.327.3765H114.193V48.84l.71-.7969,1.4376-1.5676a4.7241,4.7241,0,0,0,.6073-.806,1.75,1.75,0,0,0,.2427-.8493.98.98,0,0,0-.2894-.7359,1.0673,1.0673,0,0,0-.7751-.28,2.145,2.145,0,0,0-1.1859.4118Z"/>
        <path d="M121.5418,49.5848a1.8217,1.8217,0,0,1-1.7742-1.2173,5.59,5.59,0,0,1,.1959-4.3353,1.7855,1.7855,0,0,1,3.1375-.0262,4.5643,4.5643,0,0,1,.57,2.4,4.5,4.5,0,0,1-.4672,2.2067A1.792,1.792,0,0,1,121.5418,49.5848Zm1.3165-3.1619q0-2.671-1.3165-2.671-1.3079,0-1.3075,2.6539a4.9312,4.9312,0,0,0,.2149,1.6724,1.11,1.11,0,0,0,1.0926.8322Q122.8581,48.91,122.8583,46.4229Z"/>
        <path d="M125.3041,43.6556a3.3853,3.3853,0,0,1,1.7742-.5343,1.6946,1.6946,0,0,1,1.3166.4814,1.6,1.6,0,0,1,.3832,1.121,2.164,2.164,0,0,1-.2984,1.0777,9.1562,9.1562,0,0,1-.9524,1.2082l-1.3165,1.4018-.3833.4375h3.0631v.2455l-.327.3765h-3.5769V48.84l.71-.7969,1.4376-1.5676a4.7241,4.7241,0,0,0,.6073-.806,1.7435,1.7435,0,0,0,.2422-.8493.9791.9791,0,0,0-.2889-.7359,1.0689,1.0689,0,0,0-.7751-.28,2.1462,2.1462,0,0,0-1.1859.4118Z"/>
        <path d="M132.336,49.5848a1.8212,1.8212,0,0,1-1.7742-1.2173,5.5869,5.5869,0,0,1,.1954-4.3353,1.7858,1.7858,0,0,1,3.1379-.0262,4.5548,4.5548,0,0,1,.57,2.4,4.4959,4.4959,0,0,1-.4671,2.2067A1.7917,1.7917,0,0,1,132.336,49.5848Zm1.317-3.1619q0-2.671-1.317-2.671-1.3085,0-1.3071,2.6539a4.9431,4.9431,0,0,0,.2145,1.6724,1.1087,1.1087,0,0,0,1.0926.8322Q133.6523,48.91,133.653,46.4229Z"/>
        <path d="M138.6943,49.4709V43.2h2.5768a2.4744,2.4744,0,0,1,2.0831.9461,3.5144,3.5144,0,0,1,.6349,2.19,3.2936,3.2936,0,0,1-.8218,2.3993,2.5323,2.5323,0,0,1-1.8962.7359Zm.8494-.7092h1.5787q2.0163,0,2.0163-2.426t-2.0163-2.4265h-1.5787Z"/>
        <path d="M150.2459,43.2h.8494v4.3a1.8187,1.8187,0,0,1-.7941,1.5766,2.9825,2.9825,0,0,1-1.7828.49,2.8314,2.8314,0,0,1-1.961-.622A1.8738,1.8738,0,0,1,145.96,47.5V43.2h.8494v4.3a1.2058,1.2058,0,0,0,.4481,1.0028,1.9864,1.9864,0,0,0,1.2612.3551,1.9665,1.9665,0,0,0,1.3252-.4032,1.2173,1.2173,0,0,0,.4023-.9547Z"/>
        <path d="M153.2146,49.4709V43.2h2.717a2.1632,2.1632,0,0,1,1.4472.438,1.453,1.453,0,0,1,.5329,1.1558,1.3953,1.3953,0,0,1-.9343,1.3665,1.569,1.569,0,0,1,1.2231,1.5238,1.7017,1.7017,0,0,1-.5129,1.2611,1.9977,1.9977,0,0,1-1.4662.5257Zm.8494-3.5732h1.6531a1.7267,1.7267,0,0,0,.9714-.2193.8775.8775,0,0,0,.3642-.7707.9007.9007,0,0,0-.3642-.7793,1.731,1.731,0,0,0-.9714-.2192H154.064Zm0,2.864h2.0821a1.2808,1.2808,0,0,0,.8876-.285,1.1485,1.1485,0,0,0,0-1.5853,1.2831,1.2831,0,0,0-.8876-.2845H154.064Z"/>
        <path d="M163.6346,47.5878h-2.5769l-.7093,1.8831h-.9057L161.8232,43.2h1.1021l2.3433,6.2709h-.9429Zm-.2422-.6744-1.0277-2.8464-1.0925,2.8464Z"/>
        <path d="M167.8655,43.2v6.2709h-.8685V43.2Z"/>
      </g>
      <g>
        <path d="M85.8749,33.2924v2.946H83.943V27.4123h1.9319v3.8831l3.68-3.8831h2.2866l-3.7585,3.7968,4.1527,5.0293H89.9224l-3.075-3.8954Z"/>
        <path d="M94.6929,29.7054v6.533H92.88v-6.533Zm-.92-2.2435a.8308.8308,0,0,1,.5982.234.7587.7587,0,0,1,.2431.5672.7378.7378,0,0,1-.2431.56.84.84,0,0,1-.5982.2283.8623.8623,0,0,1-.6044-.2283.7293.7293,0,0,1-.25-.56.75.75,0,0,1,.25-.5672A.8526.8526,0,0,1,93.7729,27.4619Z"/>
        <path d="M96.1777,29.7054h1.8137V30.63a2.3825,2.3825,0,0,1,2.0764-1.06,2.3537,2.3537,0,0,1,1.8137.6659,2.3248,2.3248,0,0,1,.5258,1.6024v4.4006h-1.8V32.1829a1.0345,1.0345,0,0,0-1.17-1.1711,1.5234,1.5234,0,0,0-1.0516.3513,1.1875,1.1875,0,0,0-.3942.9308v3.9445H96.1777Z"/>
        <path d="M108.2293,29.7054h1.7218v6.4715a2.3864,2.3864,0,0,1-1.012,2.17,4.4221,4.4221,0,0,1-2.34.53,3.8145,3.8145,0,0,1-2.3652-.6286,1.5694,1.5694,0,0,1-.6969-1.2207h1.8661q.2238.7644,1.288.7645a1.6747,1.6747,0,0,0,1.13-.3946,1.3286,1.3286,0,0,0,.4075-1.0724V35.351a3.2965,3.2965,0,0,1-.9328.8012,2.29,2.29,0,0,1-1.0515.2216,2.55,2.55,0,0,1-2.1422-1.0352,3.541,3.541,0,0,1-.6964-2.2559,3.7647,3.7647,0,0,1,.9328-2.6381,2.5959,2.5959,0,0,1,1.9715-.8751,2.353,2.353,0,0,1,1.9186,1.0233Zm-1.5506,1.2816a1.238,1.238,0,0,0-1.0582.5672,2.507,2.507,0,0,0-.4009,1.4794,2.27,2.27,0,0,0,.4009,1.4051,1.2621,1.2621,0,0,0,1.0582.53,1.4026,1.4026,0,0,0,1.13-.5424,2.134,2.134,0,0,0,.42-1.4051,2.2888,2.2888,0,0,0-.4862-1.5409A1.34,1.34,0,0,0,106.6787,30.987Z"/>
        <path d="M117.6393,27.4123v8.8261h-1.8138v-.7273a2.206,2.206,0,0,1-1.9057.8627A2.673,2.673,0,0,1,111.699,35.29a3.63,3.63,0,0,1-.7226-2.3054,3.5614,3.5614,0,0,1,.92-2.5886,2.6849,2.6849,0,0,1,2.01-.826,2.1955,2.1955,0,0,1,1.9186.9123v-3.07Zm-3.3248,3.55a1.32,1.32,0,0,0-1.104.5548,2.7092,2.7092,0,0,0-.0066,2.89,1.4029,1.4029,0,0,0,2.2208.0062,2.3157,2.3157,0,0,0,.4142-1.4422,2.3394,2.3394,0,0,0-.4209-1.46A1.3252,1.3252,0,0,0,114.3145,30.9627Z"/>
        <path d="M122.16,29.57a3.3494,3.3494,0,0,1,2.6417,1.0357,3.3979,3.3979,0,0,1,.8008,2.3665,3.2921,3.2921,0,0,1-1.0372,2.6133,3.5343,3.5343,0,0,1-2.4053.7888,3.3694,3.3694,0,0,1-2.6417-1.0228,3.4451,3.4451,0,0,1-.8018-2.3793,3.2785,3.2785,0,0,1,1.0382-2.601A3.5027,3.5027,0,0,1,122.16,29.57Zm0,1.3684a1.4352,1.4352,0,0,0-1.1826.561,2.2915,2.2915,0,0,0-.4471,1.4728,2.2668,2.2668,0,0,0,.4995,1.5533,1.4772,1.4772,0,0,0,1.13.4809,1.4519,1.4519,0,0,0,1.1888-.561,2.2652,2.2652,0,0,0,.4538-1.4732,2.2153,2.2153,0,0,0-.5129-1.541A1.46,1.46,0,0,0,122.16,30.9379Z"/>
        <path d="M126.6807,29.7054h1.8v.7888a2.4469,2.4469,0,0,1,1.9057-.9247,1.9837,1.9837,0,0,1,1.8924.9614,2.5142,2.5142,0,0,1,2.0368-.9614,2.3319,2.3319,0,0,1,1.6359.5362,1.9151,1.9151,0,0,1,.5854,1.4857v4.647H134.736V31.8626q0-.8508-.9858-.8508a1.2045,1.2045,0,0,0-.9066.3389,1.2984,1.2984,0,0,0-.3289.9432v3.9445h-1.8128V31.8626q0-.8508-.9724-.8508a1.2014,1.2014,0,0,0-.9066.3389,1.2984,1.2984,0,0,0-.3289.9432v3.9445h-1.8133Z"/>
        <path d="M143.173,29.57a3.3469,3.3469,0,0,1,2.6418,1.0357,3.3941,3.3941,0,0,1,.8017,2.3665,3.2927,3.2927,0,0,1-1.0382,2.6133,3.5327,3.5327,0,0,1-2.4053.7888,3.3665,3.3665,0,0,1-2.6407-1.0228,3.4427,3.4427,0,0,1-.8018-2.3793,3.2785,3.2785,0,0,1,1.0382-2.601A3.5,3.5,0,0,1,143.173,29.57Zm0,1.3684a1.4355,1.4355,0,0,0-1.1821.561,2.6573,2.6573,0,0,0,.0524,3.0261,1.477,1.477,0,0,0,1.13.4809,1.4551,1.4551,0,0,0,1.19-.561,2.2708,2.2708,0,0,0,.4538-1.4732,2.2153,2.2153,0,0,0-.5129-1.541A1.4617,1.4617,0,0,0,143.173,30.9379Z"/>
        <path d="M150.9142,29.8407v1.122h-1.0516v5.2757h-1.8132V30.9627h-.9858v-1.122h.9858v-.7888q0-1.6394,1.7608-1.64.42,0,1.0515.0372v1.27a3.6579,3.6579,0,0,0-.5129-.0371q-.4862,0-.4862.5176v.641Z"/>
        <path d="M160.9014,30.0752h-1.8133q-.093-1.344-1.9715-1.3436a2.18,2.18,0,0,0-1.19.2831.8694.8694,0,0,0-.4395.7645.7774.7774,0,0,0,.3671.7026,4.3626,4.3626,0,0,0,1.4195.4189l1.472.2588a3.6374,3.6374,0,0,1,1.8923.8017,2.1135,2.1135,0,0,1,.5921,1.6024,2.4048,2.4048,0,0,1-1.1564,2.1572,4.8691,4.8691,0,0,1-2.6942.653,4.5091,4.5091,0,0,1-2.9439-.8379,2.7044,2.7044,0,0,1-.96-2.0218h1.88q.1044,1.4055,2.1154,1.4055a2.73,2.73,0,0,0,1.3995-.3022.9663.9663,0,0,0,.1059-1.6333,3.61,3.61,0,0,0-1.3738-.4562l-1.3147-.234a4.2188,4.2188,0,0,1-2.043-.7826,1.9464,1.9464,0,0,1-.6111-1.5471,2.3229,2.3229,0,0,1,1.064-2.071,4.4365,4.4365,0,0,1,2.4977-.6162,4.3371,4.3371,0,0,1,2.8648.8136A2.5187,2.5187,0,0,1,160.9014,30.0752Z"/>
        <path d="M168.182,35.8071v.4313h-1.97a1.0546,1.0546,0,0,1-.2107-.6658,2.6864,2.6864,0,0,1-2.1031.8012,2.2846,2.2846,0,0,1-1.6293-.5791,1.6888,1.6888,0,0,1-.5-1.2945,1.8006,1.8006,0,0,1,1.0515-1.75,7.4037,7.4037,0,0,1,1.7742-.4437l1.4195-.2469-.0133-.468q-.0129-.6536-1.0516-.6535a1.6977,1.6977,0,0,0-.939.1911.9582.9582,0,0,0-.3356.6964H161.94q.1588-2.2557,2.9706-2.2559a3.7537,3.7537,0,0,1,2.2337.5176,1.7937,1.7937,0,0,1,.6178,1.4919v3.6485A.5569.5569,0,0,0,168.182,35.8071Zm-2.1679-2.7244-1.327.2836a1.9449,1.9449,0,0,0-.8418.3575.7444.7444,0,0,0-.2622.58c0,.4681.3232.7026.9724.7026a1.2976,1.2976,0,0,0,1.4453-1.4423Z"/>
        <path d="M175.3054,36.2384h-1.8009v-.9246a2.3921,2.3921,0,0,1-2.0888,1.06,2.3542,2.3542,0,0,1-1.8142-.6654,2.2758,2.2758,0,0,1-.5253-1.59v-4.413H170.89v4.0555a1.0285,1.0285,0,0,0,1.1564,1.1711,1.5637,1.5637,0,0,0,1.0582-.3455,1.1725,1.1725,0,0,0,.4-.9366V29.7054h1.8009Z"/>
        <path d="M182.9931,27.4123v8.8261H181.18v-.7273a2.2077,2.2077,0,0,1-1.9057.8627,2.6739,2.6739,0,0,1-2.2213-1.0843,3.6271,3.6271,0,0,1-.7226-2.3054,3.5593,3.5593,0,0,1,.92-2.5886,2.6842,2.6842,0,0,1,2.0106-.826,2.1969,2.1969,0,0,1,1.919.9123v-3.07Zm-3.3253,3.55a1.32,1.32,0,0,0-1.1039.5548,2.7122,2.7122,0,0,0-.0067,2.89,1.4034,1.4034,0,0,0,2.2213.0062,2.3125,2.3125,0,0,0,.4137-1.4422,2.3393,2.3393,0,0,0-.42-1.46A1.3254,1.3254,0,0,0,179.6678,30.9627Z"/>
        <path d="M186.2793,29.7054v6.533h-1.8142v-6.533Zm-.92-2.2435a.83.83,0,0,1,.5977.234.7587.7587,0,0,1,.2431.5672.7378.7378,0,0,1-.2431.56.8388.8388,0,0,1-.5977.2283.8614.8614,0,0,1-.6044-.2283.7276.7276,0,0,1-.25-.56.748.748,0,0,1,.25-.5672A.8518.8518,0,0,1,185.3593,27.4619Z"/>
        <path d="M195.57,34.4635h-3.5217l-.6311,1.7749h-1.9715l3.3386-8.8261h2.1421l3.26,8.8261h-1.9982Zm-.5253-1.5161-1.2222-3.4517-1.2355,3.4517Z"/>
        <path d="M198.9739,29.7054h1.8133V30.95A1.762,1.762,0,0,1,202.732,29.57h.3556l.0124,1.6768a3.6625,3.6625,0,0,0-.6836-.062,1.8672,1.8672,0,0,0-1.2345.3084,1.601,1.601,0,0,0-.3947,1.2449v3.5008h-1.8133Z"/>
        <path d="M209.6837,35.8071v.4313h-1.97a1.0552,1.0552,0,0,1-.2107-.6658,2.6862,2.6862,0,0,1-2.1031.8012,2.2842,2.2842,0,0,1-1.6292-.5791,1.6889,1.6889,0,0,1-.5-1.2945,1.8007,1.8007,0,0,1,1.0516-1.75,7.4011,7.4011,0,0,1,1.7741-.4437l1.42-.2469-.0134-.468q-.0129-.6536-1.0515-.6535a1.6981,1.6981,0,0,0-.9391.1911.9578.9578,0,0,0-.3355.6964h-1.7351Q203.6,29.57,206.4119,29.57a3.7539,3.7539,0,0,1,2.2337.5176,1.7939,1.7939,0,0,1,.6177,1.4919v3.6485A.557.557,0,0,0,209.6837,35.8071Zm-2.1678-2.7244-1.3271.2836a1.9455,1.9455,0,0,0-.8418.3575.7444.7444,0,0,0-.2622.58c0,.4681.3232.7026.9724.7026a1.2975,1.2975,0,0,0,1.4453-1.4423Z"/>
        <path d="M210.6438,27.4123h1.8132v3.0323a2.2156,2.2156,0,0,1,1.9057-.8751,2.6528,2.6528,0,0,1,2.2213,1.06,3.7238,3.7238,0,0,1,.7226,2.3422,3.523,3.523,0,0,1-.9333,2.5642,2.6923,2.6923,0,0,1-2.0106.8379,2.2055,2.2055,0,0,1-1.9057-.8627v.7273h-1.8132Zm3.3243,3.5747a1.3288,1.3288,0,0,0-1.11.5362,2.7668,2.7668,0,0,0-.0067,2.9031,1.4294,1.4294,0,0,0,2.227-.0062,2.2858,2.2858,0,0,0,.4137-1.436,2.3358,2.3358,0,0,0-.4137-1.4547A1.3261,1.3261,0,0,0,213.9681,30.987Z"/>
        <path d="M220.159,29.7054v6.533h-1.8142v-6.533Zm-.92-2.2435a.83.83,0,0,1,.5977.234.7587.7587,0,0,1,.2431.5672.7378.7378,0,0,1-.2431.56.839.839,0,0,1-.5977.2283.8612.8612,0,0,1-.6044-.2283.7276.7276,0,0,1-.25-.56.748.748,0,0,1,.25-.5672A.8516.8516,0,0,1,219.2391,27.4619Z"/>
        <path d="M227.597,35.8071v.4313h-1.9706a1.0552,1.0552,0,0,1-.2106-.6658,2.6864,2.6864,0,0,1-2.1031.8012,2.2846,2.2846,0,0,1-1.6293-.5791,1.6888,1.6888,0,0,1-.5-1.2945,1.8006,1.8006,0,0,1,1.0515-1.75,7.4037,7.4037,0,0,1,1.7742-.4437l1.4195-.2469-.0133-.468q-.0129-.6536-1.0516-.6535a1.6977,1.6977,0,0,0-.939.1911.9582.9582,0,0,0-.3356.6964h-1.7351q.1589-2.2557,2.9706-2.2559a3.7537,3.7537,0,0,1,2.2337.5176,1.7937,1.7937,0,0,1,.6178,1.4919v3.6485A.5569.5569,0,0,0,227.597,35.8071Zm-2.1679-2.7244-1.327.2836a1.9449,1.9449,0,0,0-.8418.3575.7441.7441,0,0,0-.2622.58c0,.4681.3232.7026.9724.7026a1.2976,1.2976,0,0,0,1.4453-1.4423Z"/>
      </g>
      <g>
        <path d="M89.3179,13.7414v4.5322a.2728.2728,0,0,0,.0939.2268.2777.2777,0,0,0,.215.0882h.3756v1.284h-.8456a1.5889,1.5889,0,0,1-1.114-.4656,2.7185,2.7185,0,0,1-1.7045.5915,2.78,2.78,0,0,1-1.8257-.63,3.02,3.02,0,0,1-1.02-2.3916,3.0345,3.0345,0,0,1,.94-2.2793,2.9409,2.9409,0,0,1,2.1073-.8183,3.7522,3.7522,0,0,1,1.3957.2774l.5773-.4156ZM87.68,15.3652a2.7417,2.7417,0,0,0-.899-.1635,1.5722,1.5722,0,0,0-1.1945.4972,1.8017,1.8017,0,0,0-.47,1.2906,1.8514,1.8514,0,0,0,.4228,1.2717,1.4381,1.4381,0,0,0,1.1344.4785,2.796,2.796,0,0,0,1.0063-.2016ZM86.405,11.3115a.87.87,0,0,1,.6178.2393.7651.7651,0,0,1,.255.5791.7514.7514,0,0,1-.255.5662.9165.9165,0,0,1-1.2351,0,.75.75,0,0,1-.255-.5662.7634.7634,0,0,1,.255-.5791A.868.868,0,0,1,86.405,11.3115Zm2.0406,0a.87.87,0,0,1,.6173.2393.7651.7651,0,0,1,.255.5791.7514.7514,0,0,1-.255.5662.87.87,0,0,1-.6173.2393.8528.8528,0,0,1-.6044-.2393.7514.7514,0,0,1-.255-.5662.7651.7651,0,0,1,.255-.5791A.8528.8528,0,0,1,88.4456,11.3115Z"/>
        <path d="M91.7774,18.5886v1.284H89.9085v-1.284Z"/>
        <path d="M95.7233,14.0812v4.4064a1.38,1.38,0,0,1-.3489.9065,1.4373,1.4373,0,0,1-1.1006.4785h-2.59v-1.284H93.75a.3582.3582,0,0,0,.255-.101.2826.2826,0,0,0,.0939-.214V14.0812Zm-2.9391,6.71a.87.87,0,0,1,.6172.2392.7849.7849,0,0,1,0,1.1582.8692.8692,0,0,1-.6172.2393.8531.8531,0,0,1-.6045-.2393.7851.7851,0,0,1,0-1.1582A.8534.8534,0,0,1,92.7842,20.7916Zm2.0535,0a.8456.8456,0,0,1,.6106.2392.7995.7995,0,0,1,0,1.1582.8452.8452,0,0,1-.6106.2393.868.868,0,0,1-.6173-.2393.7849.7849,0,0,1,0-1.1582A.8683.8683,0,0,1,94.8377,20.7916Z"/>
        <path d="M98.5423,14.0059a6.5463,6.5463,0,0,1,1.0606-.0758,3.4214,3.4214,0,0,1,2.4968.9318,2.8358,2.8358,0,0,1,.8456,2.09v1.5357a1.2752,1.2752,0,0,1-.4566.9947,1.4021,1.4021,0,0,1-.9934.39H97.1867v-1.284h3.7852q.3354,0,.3356-.315V17.103a1.8249,1.8249,0,0,0-.5639-1.3975,2.27,2.27,0,0,0-1.5168-.529,3.4444,3.4444,0,0,0-.6845.05Z"/>
        <path d="M107.5357,19.8726a2.9584,2.9584,0,0,1-2.3224-.9442,2.8969,2.8969,0,0,1-.7112-1.9894,2.8721,2.8721,0,0,1,.8456-2.2029,3.2413,3.2413,0,0,1,2.2685-.806,3.204,3.204,0,0,1,1.7451.4657,2.119,2.119,0,0,1,.9662,1.8636v2.3292h.43v1.284h-.4428A2.89,2.89,0,0,1,109.2941,22a3.573,3.573,0,0,1-1.5439.743,5.766,5.766,0,0,1-1.2346.1383q-.2016,0-.5773-.0253h-.04l-.6845-.7931v-.5538a6.578,6.578,0,0,0,1.0339.0881q2.2008,0,2.4024-1.7249Zm1.1545-3.6132a.9759.9759,0,0,0-.3494-.7931,1.1124,1.1124,0,0,0-.7246-.2522,1.3808,1.3808,0,0,0-1.0873.4533,1.8116,1.8116,0,0,0-.4028,1.2464,1.6729,1.6729,0,0,0,.4429,1.2215,1.6124,1.6124,0,0,0,1.2083.4533h.9129Z"/>
        <path d="M112.5288,16.297a3.4127,3.4127,0,0,1,1.664-1.876,4.0831,4.0831,0,0,1,1.9468-.478,3.63,3.63,0,0,1,1.919.5285,3.4807,3.4807,0,0,1,1.5573,1.8255l-.1611.3527a3.95,3.95,0,0,0-1.1278.78,2.8987,2.8987,0,0,0-.7379,1.1587H119.75v1.284h-2.9529a.9263.9263,0,0,1-.6845-.3274h-.0672a.9518.9518,0,0,1-.7112.3274h-4.6709v-1.284h3.8925a3.0579,3.0579,0,0,0-.6845-1.0953,3.3505,3.3505,0,0,0-1.195-.8436Zm5.3687-.1006a1.9552,1.9552,0,0,0-.8723-.7807,2.2176,2.2176,0,0,0-.9262-.1887,2.494,2.494,0,0,0-1.02.214,1.8552,1.8552,0,0,0-.8323.7554,2.8443,2.8443,0,0,1,.9667.7555,3.9075,3.9075,0,0,1,.8318,1.284h.0538a3.84,3.84,0,0,1,.8723-1.3469A2.8815,2.8815,0,0,1,117.8975,16.1964Z"/>
        <path d="M132.5053,14.0812v4.5074h.6845v1.284h-.5234l-.4423-.5161h-.0277a1.4592,1.4592,0,0,1-1.14.5161h-2.8729l-.4433-.5161h-.04a1.4209,1.4209,0,0,1-1.1278.5161h-2.8858l-.4433-.5161h-.04a1.4193,1.4193,0,0,1-1.1273.5161h-2.4194v-1.284h1.896q.3352,0,.3356-.315V15.5292h1.6373v2.6691c0,.1763-.0048.3064-.0133.39h2.5368c.2231,0,.3356-.1048.3356-.315V14.799h1.6378v3.3616c0,.05-.0048.1258-.0133.2264v.2016h2.5239c.2231,0,.3356-.1048.3356-.315V14.0812Z"/>
        <path d="M137.1366,10.8583v7.6293a1.2643,1.2643,0,0,1-.3622.9065,1.3729,1.3729,0,0,1-1.0878.4785h-2.59v-1.284h2.0668a.3611.3611,0,0,0,.2555-.101.2836.2836,0,0,0,.0934-.214V10.8583Z"/>
        <path d="M140.6258,10.8583v8.7l-.8322.6291h-.8056V10.8583Z"/>
        <path d="M150.5854,13.7414v4.5322a.2728.2728,0,0,0,.0944.2268.2759.2759,0,0,0,.2145.0882h.3756v1.284h-.8456a1.5914,1.5914,0,0,1-1.1145-.4656,2.7175,2.7175,0,0,1-1.7046.5915,2.7816,2.7816,0,0,1-1.8256-.63,3.0216,3.0216,0,0,1-1.02-2.3916,3.0353,3.0353,0,0,1,.94-2.2793,2.9423,2.9423,0,0,1,2.1069-.8183,3.7571,3.7571,0,0,1,1.3966.2774l.5768-.4156Zm-1.6379,1.6238a2.739,2.739,0,0,0-.899-.1635,1.5716,1.5716,0,0,0-1.1945.4972,1.8021,1.8021,0,0,0-.47,1.2906,1.8492,1.8492,0,0,0,.4233,1.2717,1.4367,1.4367,0,0,0,1.1335.4785,2.7964,2.7964,0,0,0,1.0067-.2016Zm-1.2746-4.0537a.8676.8676,0,0,1,.6168.2393.7621.7621,0,0,1,.2555.5791.7484.7484,0,0,1-.2555.5662.9157.9157,0,0,1-1.2345,0A.7519.7519,0,0,1,146.8,12.13a.7656.7656,0,0,1,.2555-.5791A.8682.8682,0,0,1,147.6729,11.3115Zm2.04,0a.8676.8676,0,0,1,.6168.2393.7625.7625,0,0,1,.2555.5791.7488.7488,0,0,1-.2555.5662.8676.8676,0,0,1-.6168.2393.8528.8528,0,0,1-.6044-.2393.751.751,0,0,1-.2546-.5662.7647.7647,0,0,1,.2546-.5791A.8528.8528,0,0,1,149.7131,11.3115Z"/>
        <path d="M151.72,18.5886v1.284h-.5438v-1.284Z"/>
        <path d="M155.6672,14.0812v4.5074h.6845v1.284h-.47l-.4967-.5161h-.0267a1.46,1.46,0,0,1-1.1412.5161h-2.59v-1.284h2.0268a.3216.3216,0,0,0,.2679-.101.3131.3131,0,0,0,.1211-.2517V14.0812Zm-2.9134,6.71a.8686.8686,0,0,1,.6177.2392.784.784,0,0,1,0,1.1582.9158.9158,0,0,1-1.2346,0,.784.784,0,0,1,0-1.1582A.8682.8682,0,0,1,152.7538,20.7916Zm2.0411,0a.8681.8681,0,0,1,.6168.2392.784.784,0,0,1,0,1.1582.8678.8678,0,0,1-.6168.2393.8514.8514,0,0,1-.6045-.2393.784.784,0,0,1,0-1.1582A.8517.8517,0,0,1,154.7949,20.7916Z"/>
        <path d="M160.2975,14.0812v4.4064a1.38,1.38,0,0,1-.3489.9065,1.439,1.439,0,0,1-1.1011.4785h-2.59v-1.284h2.0668a.3609.3609,0,0,0,.2555-.101.2836.2836,0,0,0,.0934-.214V14.0812Zm-1.1144,6.71a.87.87,0,0,1,.6177.2392.7859.7859,0,0,1,0,1.1582.87.87,0,0,1-.6177.2393.8479.8479,0,0,1-.6111-.2393.8.8,0,0,1,0-1.1582A.8482.8482,0,0,1,159.1831,20.7916Z"/>
        <path d="M165.9079,14.0812v4.5074h.6845v1.284h-.6978a2.9144,2.9144,0,0,1-1.2756,2.3164,4.0771,4.0771,0,0,1-2.3757.6673q-.2417,0-.5234-.0124l-.6578-.7678v-.5415a5.7267,5.7267,0,0,0,.8323.0629q2.3753,0,2.3757-2.1657V14.0812Z"/>
        <path d="M167.5458,16.297a3.4117,3.4117,0,0,1,1.6645-1.876,4.0778,4.0778,0,0,1,1.9458-.478,3.6358,3.6358,0,0,1,1.92.5285,3.482,3.482,0,0,1,1.5568,1.8255l-.1611.3527a3.9431,3.9431,0,0,0-1.1278.78,2.9042,2.9042,0,0,0-.7379,1.1587h2.1612v1.284h-2.9534a.9255.9255,0,0,1-.6845-.3274h-.0668a.9528.9528,0,0,1-.7121.3274H166.499v-1.284h3.0736a3.0593,3.0593,0,0,0-.6845-1.0953,3.3571,3.3571,0,0,0-1.1946-.8436Zm5.3692-.1006a1.9651,1.9651,0,0,0-.8723-.7807,2.2216,2.2216,0,0,0-.9267-.1887,2.4923,2.4923,0,0,0-1.02.214,1.85,1.85,0,0,0-.8323.7554,2.8443,2.8443,0,0,1,.9667.7555,3.9152,3.9152,0,0,1,.8322,1.284h.0534a3.8331,3.8331,0,0,1,.8723-1.3469A2.8722,2.8722,0,0,1,172.915,16.1964Z"/>
        <path d="M178.7132,10.8583v7.6293a1.264,1.264,0,0,1-.3623.9065,1.3725,1.3725,0,0,1-1.0877.4785h-2.59v-1.284H176.74a.3611.3611,0,0,0,.2555-.101.2839.2839,0,0,0,.0934-.214V10.8583Z"/>
        <path d="M182.2024,10.8583v8.7l-.8322.6291h-.8056V10.8583Z"/>
        <path d="M192.162,13.7414v4.5322a.273.273,0,0,0,.0943.2268.2759.2759,0,0,0,.2145.0882h.3757v1.284h-.8457a1.5914,1.5914,0,0,1-1.1144-.4656,2.7175,2.7175,0,0,1-1.7046.5915,2.7816,2.7816,0,0,1-1.8256-.63,3.0213,3.0213,0,0,1-1.02-2.3916,3.0349,3.0349,0,0,1,.94-2.2793,2.9421,2.9421,0,0,1,2.1069-.8183,3.7571,3.7571,0,0,1,1.3966.2774l.5768-.4156Zm-1.6379,1.6238a2.7394,2.7394,0,0,0-.899-.1635,1.5716,1.5716,0,0,0-1.1945.4972,1.8017,1.8017,0,0,0-.47,1.2906,1.8492,1.8492,0,0,0,.4233,1.2717,1.4367,1.4367,0,0,0,1.1335.4785,2.7964,2.7964,0,0,0,1.0067-.2016ZM189.25,11.3115a.8676.8676,0,0,1,.6168.2393.7621.7621,0,0,1,.2555.5791.7484.7484,0,0,1-.2555.5662.9158.9158,0,0,1-1.2346,0,.7519.7519,0,0,1-.2555-.5662.7656.7656,0,0,1,.2555-.5791A.8685.8685,0,0,1,189.25,11.3115Zm2.04,0a.8678.8678,0,0,1,.6168.2393.7625.7625,0,0,1,.2555.5791.7488.7488,0,0,1-.2555.5662.8678.8678,0,0,1-.6168.2393.8529.8529,0,0,1-.6045-.2393.7509.7509,0,0,1-.2545-.5662.7646.7646,0,0,1,.2545-.5791A.8529.8529,0,0,1,191.29,11.3115Z"/>
        <path d="M199.1557,10.6819v1.4227L196.35,13.7161a5.4753,5.4753,0,0,1,2.7923,1.9642,4.4889,4.4889,0,0,1,.9124,2.732v.1763h.43v1.284h-.2555l-.4566-.5161h-.0267a1.4849,1.4849,0,0,1-1.1412.5161H192.753v-1.284h5.3282q.3491,0,.349-.3274a3.564,3.564,0,0,0-.818-1.9642,4.48,4.48,0,0,0-3.1279-1.5109c-.0629,0-.0944-.0333-.0944-.1006V13.2628Z"/>
        <path d="M204.4305,10.8583v7.73h.6845v1.284h-.4567l-.51-.5161h-.0267a1.46,1.46,0,0,1-1.1411.5161h-2.59v-1.284h2.0669a.3767.3767,0,0,0,.2688-.101.42.42,0,0,0,.08-.214V10.8583Z"/>
        <path d="M206.6693,18.5886a4.0169,4.0169,0,0,1-.3222-1.6367,2.8366,2.8366,0,0,1,.98-2.304,3.5719,3.5719,0,0,1,3.9592-.2016,2.0877,2.0877,0,0,1,.8866,1.8131v2.0142a.3772.3772,0,0,0,.0667.214.341.341,0,0,0,.2412.101h.1211v1.284h-.59a1.4541,1.4541,0,0,1-1.0334-.4027,2.1719,2.1719,0,0,1-1.7456.78,2.7288,2.7288,0,0,1-1.9867-.8055h-.0267l-.3757.428h-1.8231v-1.284Zm3.8658-2.3292a.9884.9884,0,0,0-.3089-.7555,1.0735,1.0735,0,0,0-.8056-.29,1.2987,1.2987,0,0,0-1.0534.4786,1.9522,1.9522,0,0,0-.3957,1.2845,2.38,2.38,0,0,0,.4024,1.4351,1.2276,1.2276,0,0,0,1.0334.5538,1.652,1.652,0,0,0,1.1278-.5162Z"/>
        <path d="M214.8976,18.5886a4.0169,4.0169,0,0,1-.3223-1.6367,2.8363,2.8363,0,0,1,.98-2.304,3.5719,3.5719,0,0,1,3.9592-.2016,2.0877,2.0877,0,0,1,.8866,1.8131v2.0142a.3772.3772,0,0,0,.0667.214.341.341,0,0,0,.2412.101h.1211v1.284h-.59a1.4541,1.4541,0,0,1-1.0334-.4027,2.172,2.172,0,0,1-1.7456.78,2.7292,2.7292,0,0,1-1.9868-.8055h-.0267l-.3756.428h-2.5635v-1.284Zm3.8658-2.3292a.9884.9884,0,0,0-.3089-.7555,1.0735,1.0735,0,0,0-.8056-.29,1.2986,1.2986,0,0,0-1.0534.4786,1.9522,1.9522,0,0,0-.3957,1.2845,2.38,2.38,0,0,0,.4023,1.4351,1.2278,1.2278,0,0,0,1.0335.5538,1.652,1.652,0,0,0,1.1278-.5162Z"/>
        <path d="M224.1078,10.8583v7.6293a1.264,1.264,0,0,1-.3623.9065,1.3726,1.3726,0,0,1-1.0878.4785h-1.9209v-1.284h1.3976a.3611.3611,0,0,0,.2555-.101.2839.2839,0,0,0,.0934-.214V10.8583Z"/>
        <path d="M227.597,10.8583v8.7l-.8323.6291h-.8055V10.8583Z"/>
      </g>
    </g>
  </g>
</svg>
